<svg xmlns="http://www.w3.org/2000/svg" version="1.1" xmlns:xlink="http://www.w3.org/1999/xlink" xmlns:svgjs="http://svgjs.dev/svgjs" viewBox="0 0 3.8241400727440755 1.5085968598534507"><g transform="matrix(1,0,0,1,0.19580771827611976,0.2217984299267255)"><g><path d=" M 0.552 -2.220446049250313e-16 L 0.9165 0.9389999999999997 Q 0.9375 0.9929999999999997 0.96375 1.0132499999999998 Q 0.99 1.0334999999999996 1.0110000000000001 1.0349999999999997 L 1.0110000000000001 1.0649999999999997 Q 0.966 1.0619999999999998 0.90525 1.0612499999999998 Q 0.8445 1.0604999999999998 0.783 1.0604999999999998 Q 0.714 1.0604999999999998 0.6525 1.0612499999999998 Q 0.591 1.0619999999999998 0.555 1.0649999999999997 L 0.555 1.0349999999999997 Q 0.6315000000000001 1.0319999999999998 0.65175 1.0087499999999998 Q 0.672 0.9854999999999997 0.642 0.9089999999999997 L 0.387 0.2114999999999997 L 0.41400000000000003 0.17249999999999965 L 0.186 0.7664999999999997 Q 0.14400000000000002 0.8774999999999997 0.14475 0.9344999999999997 Q 0.1455 0.9914999999999997 0.1815 1.0117499999999997 Q 0.2175 1.0319999999999998 0.2775 1.0349999999999997 L 0.2775 1.0649999999999997 Q 0.228 1.0619999999999998 0.183 1.0612499999999998 Q 0.138 1.0604999999999998 0.0915 1.0604999999999998 Q 0.0585 1.0604999999999998 0.02925 1.0612499999999998 Q 0 1.0619999999999998 -0.0225 1.0649999999999997 L -0.0225 1.0349999999999997 Q 0.009000000000000001 1.0289999999999997 0.042 0.9944999999999997 Q 0.075 0.9599999999999997 0.1065 0.8774999999999997 L 0.4485 -2.220446049250313e-16 Q 0.47250000000000003 0.0014999999999996128 0.50025 0.0014999999999996128 Q 0.528 0.0014999999999996128 0.552 -2.220446049250313e-16 M 0.657 0.6329999999999998 L 0.657 0.6629999999999997 L 0.21 0.6629999999999997 L 0.225 0.6329999999999998 L 0.657 0.6329999999999998 M 1.87649853515625 0.0029999999999996696 Q 1.87049853515625 0.07949999999999968 1.86824853515625 0.1499999999999997 Q 1.86599853515625 0.2204999999999997 1.86599853515625 0.2579999999999997 Q 1.86599853515625 0.2909999999999997 1.86749853515625 0.32099999999999973 Q 1.86899853515625 0.35099999999999976 1.87049853515625 0.37199999999999966 L 1.83599853515625 0.37199999999999966 Q 1.81199853515625 0.24599999999999966 1.77524853515625 0.17249999999999965 Q 1.73849853515625 0.09899999999999975 1.6874985351562501 0.0682499999999997 Q 1.63649853515625 0.037499999999999645 1.56749853515625 0.037499999999999645 L 1.53299853515625 0.037499999999999645 L 1.53299853515625 0.8939999999999997 Q 1.53299853515625 0.9539999999999997 1.54574853515625 0.9839999999999998 Q 1.5584985351562501 1.0139999999999998 1.5929985351562501 1.0237499999999997 Q 1.62749853515625 1.0334999999999996 1.69349853515625 1.0349999999999997 L 1.69349853515625 1.0649999999999997 Q 1.64699853515625 1.0634999999999997 1.5697485351562501 1.0619999999999998 Q 1.4924985351562499 1.0604999999999998 1.40849853515625 1.0604999999999998 Q 1.32599853515625 1.0604999999999998 1.25249853515625 1.0619999999999998 Q 1.17899853515625 1.0634999999999997 1.13399853515625 1.0649999999999997 L 1.13399853515625 1.0349999999999997 Q 1.20149853515625 1.0334999999999996 1.23599853515625 1.0237499999999997 Q 1.2704985351562499 1.0139999999999998 1.28249853515625 0.9839999999999998 Q 1.29449853515625 0.9539999999999997 1.29449853515625 0.8939999999999997 L 1.29449853515625 0.037499999999999645 L 1.26149853515625 0.037499999999999645 Q 1.19249853515625 0.037499999999999645 1.14149853515625 0.0682499999999997 Q 1.09049853515625 0.09899999999999975 1.0544985351562501 0.17174999999999974 Q 1.01849853515625 0.24449999999999972 0.99149853515625 0.37199999999999966 L 0.95699853515625 0.37199999999999966 Q 0.95999853515625 0.35099999999999976 0.96074853515625 0.32099999999999973 Q 0.9614985351562501 0.2909999999999997 0.9614985351562501 0.2579999999999997 Q 0.9614985351562501 0.2204999999999997 0.95924853515625 0.1499999999999997 Q 0.95699853515625 0.07949999999999968 0.95099853515625 0.0029999999999996696 Q 1.01999853515625 0.0044999999999997264 1.10174853515625 0.005999999999999783 Q 1.1834985351562501 0.007499999999999618 1.26599853515625 0.007499999999999618 Q 1.34849853515625 0.007499999999999618 1.41449853515625 0.007499999999999618 Q 1.48199853515625 0.007499999999999618 1.56374853515625 0.007499999999999618 Q 1.6454985351562499 0.007499999999999618 1.72799853515625 0.005999999999999783 Q 1.81049853515625 0.0044999999999997264 1.87649853515625 0.0029999999999996696" fill="#ffffff" fill-rule="nonzero"></path></g><g></g><g clip-path="url(&quot;#SvgjsClipPath1034&quot;)"><g clip-path="url(&quot;#SvgjsClipPath1029e589ee6f-3661-4e5b-a539-c1c8670afa09&quot;)"><path d=" M 2.8740339245412305 1.0545669628744105 C 3.1623635465272466 1.0545669628744108 3.396100887415641 0.8208296219860161 3.396100887415641 0.5325 C 3.396100887415641 0.244170378013984 3.1623635465272466 0.010433037125589323 2.8740339245412305 0.010433037125589323 C 2.585704302555215 0.010433037125589323 2.35196696166682 0.24417037801398395 2.35196696166682 0.5324999999999999 C 2.35196696166682 0.8208296219860161 2.585704302555215 1.0545669628744108 2.8740339245412305 1.0545669628744108 Z M 2.8740339245412305 1.0909907116506055 C 3.1824798275080073 1.0909907116506055 3.432524636191836 0.8409459029667764 3.432524636191836 0.5324999999999999 C 3.432524636191836 0.22405409703322343 3.1824798275080073 -0.025990711650605736 2.8740339245412305 -0.025990711650605736 C 2.565588021574454 -0.025990711650605736 2.315543212890625 0.22405409703322338 2.315543212890625 0.5324999999999998 C 2.315543212890625 0.8409459029667764 2.565588021574454 1.0909907116506055 2.8740339245412305 1.0909907116506055 Z" fill="#ffffff" transform="matrix(1,0,0,1,0,0)" fill-rule="evenodd"></path></g><g clip-path="url(&quot;#SvgjsClipPath1029e589ee6f-3661-4e5b-a539-c1c8670afa09&quot;)"><path d=" M 3.007584285261754 1.074926487908219 C 2.9610162082876803 1.0634900513469472 2.9161258660748937 1.0460691034565832 2.874033924541231 1.023098549867043 C 2.8319415002312462 1.0460583594013668 2.7870507940455505 1.063465795650382 2.7404835638207077 1.074885870401917 C 2.715328096452562 1.0687122710278376 2.690636424072674 1.06078256945414 2.6665901654810447 1.0511550923450539 C 2.7259320124376747 1.0444256996044288 2.7836655511794666 1.02749657435633 2.8372446182083184 1.0011143245811598 C 2.7920022124496984 0.9717034634738174 2.751236181028121 0.9359237469694093 2.7162044494287696 0.8948792368486391 C 2.677942615957694 0.9397145137096072 2.63285621002305 0.9782420246865176 2.582603316825369 1.0090448926865987 C 2.5710950233731746 1.001984216174458 2.5598541285041345 0.9945376733524502 2.548880632218248 0.9867052642205743 C 2.6038158274213576 0.9554440935738588 2.6526507566551145 0.9145143959109088 2.6930321620835573 0.8658884917256847 C 2.5458605076063145 0.6679923986532351 2.545860507606315 0.3970076013467643 2.6930321620835573 0.1991115082743146 C 2.6526592469548973 0.15050396005492558 2.603838562834089 0.10958842898580962 2.5489212497245504 0.07833535328572762 C 2.559867667672902 0.07048940498508441 2.571095023373175 0.063029322994309 2.5826033168253693 0.05595510731340131 C 2.6328532499037514 0.08674565845637106 2.6779394878206806 0.12525931870934423 2.716204449428769 0.17008014564505847 C 2.7512336687487116 0.12903604348207495 2.7920001557523557 0.09325934712761849 2.8372446182083193 0.06385521228911342 C 2.7836678287967835 0.03746525712871554 2.7259335196525574 0.02053247063746886 2.6665901654810447 0.013804290148643754 C 2.6906364240726743 0.004176813039557928 2.715328096452562 -0.0037528885341397943 2.7404835638207077 -0.009926487908219216 C 2.7870527417730435 0.0015064574210145038 2.831943525304474 0.01892757657737261 2.874033924541231 0.041901450132957055 C 2.916125770442677 0.018940394711521986 2.9610166422905206 0.0015328942230788574 3.007584285261754 -0.009885870401917376 C 3.032740841444093 -0.003720342228269967 3.057432839461444 0.004206070767268245 3.0814776836014173 0.013834753278370367 C 3.0221361837249976 0.02055334830873614 2.9644019576913467 0.037475804422134024 2.9108232308741426 0.06385521228911342 C 2.9560708564140272 0.09325912832659401 2.99684072687098 0.12903579260393533 3.0318735540302675 0.17008014564505877 C 3.0701352032114166 0.12525990324549013 3.1152180056689844 0.08674625040111446 3.1654645322570922 0.05595510731340131 C 3.1769728257092864 0.06302255340992534 3.188213720578327 0.07048602019289255 3.199187216864213 0.07834550766230287 C 3.144253541977056 0.10958767936597405 3.0954182409456985 0.150500488267491 3.055035686998904 0.19911150827431473 C 3.202220677242326 0.39700318592209694 3.202220677242326 0.6679968140779028 3.055035686998904 0.865888491725685 C 3.095406168701598 0.9144957143422023 3.144227445399024 0.9554083019804835 3.1991465993579116 0.986654492337697 C 3.1882001814095595 0.9945139798071072 3.1769728257092864 1.0019774465900744 3.1654645322570922 1.0090448926865987 C 3.1152158121588225 0.9782567684266679 3.070132564061511 0.9397427348780446 3.0318735540302675 0.894919854354941 C 2.9968377102538315 0.9359641176496812 2.956068371948584 0.9717437349090975 2.9108232308741426 1.0011549420874617 C 2.9644022979029945 1.027537191862632 3.0221358366447864 1.044466317110731 3.081477683601416 1.051195709851356 C 3.057431425009787 1.060823186960442 3.0327397526298996 1.0687528885341397 3.0075842852617534 1.0749264879082192 Z M 2.6190778374844417 0.5324999999999999 C 2.618901050062828 0.42370869957093055 2.6528729691386355 0.31760549931261634 2.716204449428761 0.22914815418455403 C 2.7795315966511795 0.31760767642190507 2.8135030570252266 0.4237094440344795 2.8133310613730975 0.5324999999999999 C 2.8135030570252333 0.6412905559654892 2.779531596651193 0.7473923235780657 2.716204449428788 0.8358518458154327 C 2.6528729691386412 0.7473945006873973 2.6189010500628305 0.641291300429084 2.6190778374844412 0.5324999999999998 Z M 2.8497548101492924 0.5324999999999999 C 2.8499468206343956 0.6526375834660607 2.8112177167182444 0.7696051062123725 2.739366582397413 0.8658884917256764 C 2.777393170837988 0.9116721925026268 2.822932034039428 0.9506525254134055 2.8740339245412305 0.9811609746103698 C 2.9251376653403556 0.9506551004200768 2.97067693698572 0.9116744178896757 3.008701266685055 0.8658884917256847 C 2.861516276441633 0.6679968140779028 2.861516276441633 0.3970031859220967 3.0087012666850548 0.1991115082743146 C 2.97067693698572 0.1533255821103236 2.9251376653403556 0.11434489957992244 2.8740339245412305 0.08383902538962947 C 2.8229320340394284 0.11434747458659403 2.777393170837988 0.15332780749737268 2.7393665823974067 0.1991115082743146 C 2.8112157481937734 0.29539591966577444 2.849944628862095 0.41236276817118706 2.8497548101492924 0.5325 Z M 3.031873554030267 0.22914815418454187 C 2.902356980756355 0.4106462247155726 2.902356980756355 0.6543537752844272 3.031873554030267 0.8358518458154579 C 3.1613746606094204 0.6543488229319276 3.1613746606094204 0.4106511770680718 3.031873554030267 0.22914815418454176 Z" fill="#ffffff" transform="matrix(1,0,0,1,0,0)" fill-rule="evenodd"></path></g></g></g><defs><clipPath id="SvgjsClipPath1034"><path d=" M 2.315543212890625 -0.025990711650605736 h 1.1169814233012112 v 1.1169814233012112 h -1.1169814233012112 Z"></path></clipPath><clipPath id="SvgjsClipPath1029e589ee6f-3661-4e5b-a539-c1c8670afa09"><path d=" M 2.315543212890625 -0.025990711650605736 L 3.432524636191836 -0.025990711650605736 L 3.432524636191836 1.0909907116506055 L 2.315543212890625 1.0909907116506055 Z"></path></clipPath></defs></svg>